<svg width="705" height="266" viewBox="0 0 705 266" fill="none" xmlns="http://www.w3.org/2000/svg">
<path d="M146.999 53C146.999 68.51 146.999 84.02 146.999 100C137.183 100 127.367 100 117.254 100C117.028 96.2489 116.814 92.5211 116.699 88.7691C116.643 87.0223 116.568 85.2809 116.445 83.5371C115.677 72.3601 115.677 72.3601 118.256 69.1379C120.745 67.0314 123.534 65.689 126.559 64.4376C128.938 63.388 131.09 62.0023 133.285 60.6375C134.123 60.137 134.963 59.638 135.805 59.1412C137.397 58.1948 138.983 57.2391 140.563 56.2735C140.925 56.0525 141.288 55.8315 141.661 55.6038C142.337 55.191 143.012 54.7764 143.685 54.36C145.915 53 145.915 53 146.999 53Z" fill="url(#paint0_linear_2006_68)"/>
<ellipse cx="70.9988" cy="22.5" rx="20" ry="19.5" fill="url(#paint1_linear_2006_68)"/>
<path d="M156.493 7.01272C156.813 7.32538 157.132 7.63805 157.461 7.96019C157.418 9.61773 157.052 10.2491 155.901 11.4799C155.221 12.0533 155.221 12.0533 154.527 12.6383C154.285 12.8447 154.044 13.0511 153.795 13.2637C153.085 13.8692 152.369 14.4679 151.653 15.0662C150.997 15.6281 150.341 16.1906 149.687 16.7539C149.38 17.0147 149.074 17.2754 148.758 17.5441C147.219 18.8645 145.701 20.2082 144.181 21.5505C142.983 22.6087 141.782 23.6637 140.581 24.7186C136.254 28.5324 131.98 32.4 127.727 36.2931C125.407 38.4152 123.069 40.5168 120.725 42.6132C118.983 44.1763 117.259 45.7586 115.533 47.3395C113.158 49.5149 110.764 51.6661 108.339 53.7886C105.813 56.0152 103.326 58.2842 100.832 60.5449C97.1438 63.8868 93.4431 67.2115 89.6992 70.4933C88.8923 71.2037 88.0857 71.9143 87.2792 72.6251C86.6821 73.1509 86.6821 73.1509 86.0729 73.6873C85.2531 74.4097 84.4338 75.1327 83.615 75.8561C81.4732 77.7474 79.3203 79.6237 77.1451 81.4781C75.997 82.4656 74.8615 83.4662 73.7268 84.4685C71.9745 86.0162 70.2081 87.5455 68.4272 89.0615C67.3083 90.0252 66.2075 91.0071 65.1053 91.9891C63.4545 93.4521 61.7673 94.8387 60.0231 96.1935C47.9031 105.841 39.6833 118.648 37.9098 133.974C36.8369 149.171 41.2634 163.328 51.4054 174.908C59.854 184.284 70.8892 191.329 83.4071 194.138C83.7385 194.221 84.07 194.304 84.4115 194.39C88.2208 195.261 92.0403 195.274 95.9309 195.263C96.2838 195.263 96.6367 195.263 97.0003 195.263C114.116 195.205 128.208 188.629 140.292 176.838C147.437 169.478 151.482 160.922 153.795 151.117C154.148 149.803 154.598 148.526 155.041 147.238C154.518 147.247 154.518 147.247 153.984 147.256C136.877 147.545 119.77 147.773 102.66 147.822C101.016 147.827 99.3716 147.835 97.7272 147.846C95.7869 147.859 93.8467 147.865 91.9063 147.866C91.1907 147.867 90.4751 147.871 89.7596 147.877C88.7839 147.885 90.7353 147.879 89.7596 147.877C89.2119 147.879 82.6308 147.885 82.0665 147.886C82.5001 147 82.9988 146.5 82.9988 146.5C86.0647 142.451 89.091 138.234 92.3269 134.313C94.1429 132.107 95.9062 129.866 97.6552 127.608C100.091 124.464 102.599 121.385 105.164 118.341C106.518 116.77 106.518 116.77 107.608 115.024C115.557 114.962 123.507 114.9 131.456 114.839C135.149 114.811 138.843 114.782 142.536 114.753C170.895 114.529 170.895 114.529 181.047 114.509C181.828 114.507 182.61 114.505 183.392 114.501C184.425 114.497 185.457 114.496 186.49 114.496C187.049 114.495 187.608 114.494 188.184 114.493C189.406 114.551 189.406 114.551 189.89 115.024C189.94 115.805 189.957 116.587 189.96 117.369C189.965 118.123 189.965 118.123 189.97 118.891C189.971 119.718 189.971 119.718 189.971 120.561C189.973 121.132 189.975 121.702 189.976 122.29C189.979 123.509 189.98 124.728 189.98 125.947C189.981 127.768 189.99 129.589 189.999 131.411C190.012 137.116 189.923 142.787 189.465 148.476C189.409 149.169 189.409 149.169 189.352 149.875C188.284 161.695 184.569 172.862 178.758 183.242C178.485 183.736 178.212 184.229 177.932 184.738C171.974 195.116 163.672 204.39 154.073 211.667C153.803 211.872 153.533 212.078 153.254 212.29C149.049 215.474 144.723 218.218 140.021 220.646C139.113 221.118 138.215 221.607 137.318 222.098C117.344 232.746 92.1206 234.53 70.4009 228.5C59.7089 225.373 49.3682 220.993 40.3298 214.509C39.8207 214.145 39.3116 213.781 38.787 213.406C35.0474 210.683 31.5958 207.711 28.2295 204.561C27.7809 204.146 27.3323 203.732 26.8701 203.306C13.1083 190.276 4.7022 173.074 1.12471 154.818C0.989532 154.193 0.989532 154.193 0.851624 153.556C-0.0185858 149.17 -0.0153506 144.819 0.00542752 140.369C0.00647064 139.969 0.00751376 139.569 0.00858849 139.157C0.0828711 121.423 5.16379 103.943 16.6131 89.9165C17.0699 89.5525 17.5266 89.1885 17.9971 88.8136C19.2256 87.5776 19.2256 87.5776 19.0635 85.6991C18.5559 82.8894 17.7239 80.1464 16.9148 77.4083C16.3664 75.5487 15.8318 73.6854 15.2972 71.822C15.1761 71.4001 15.055 70.9782 14.9303 70.5436C12.8008 63.0877 10.8079 55.5944 8.78782 48.1095C8.34689 46.476 7.90561 44.8425 7.46415 43.2091C7.37824 42.8911 7.29233 42.5731 7.20382 42.2455C6.11759 38.2276 5.01243 34.2155 3.87565 30.211C3.75855 29.7965 3.64145 29.382 3.5208 28.955C3.00157 27.1175 2.47779 25.2816 1.94337 23.4483C1.03608 20.2829 0.299878 17.4202 0.640696 14.1188C1.80751 12.4729 2.46712 11.8613 4.48255 11.4836C7.34748 11.9986 9.31826 13.9673 11.3143 15.9384C11.5398 16.1598 11.7653 16.3811 11.9977 16.6092C12.7355 17.3344 13.4699 18.0629 14.2044 18.7913C14.7225 19.3014 15.2408 19.8112 15.7593 20.3207C17.1206 21.6593 18.4791 23.0005 19.8368 24.3425C22.0053 26.4854 24.177 28.6252 26.3504 30.7633C27.1033 31.505 27.8544 32.2483 28.6054 32.9918C30.8757 35.2326 33.1614 37.4249 35.6241 39.4643C37.1944 40.8015 38.6314 42.2734 40.0878 43.7272C42.2414 45.858 44.4 47.9341 46.7411 49.8691C47.7151 50.7035 48.6179 51.5888 49.5261 52.4913C51.377 54.328 53.3058 56.0549 55.3342 57.7024C55.6222 57.9463 55.91 58.1902 56.2067 58.4415C58.201 59.7206 60.308 59.4862 62.5945 59.1237C64.6212 58.3399 66.4083 57.264 68.2514 56.1332C69.0742 55.6485 69.897 55.1637 70.7201 54.6796C71.5989 54.1602 72.4743 53.6357 73.3491 53.1101C75.2269 51.9847 77.1201 50.8858 79.0169 49.7914C85.452 46.0758 91.8607 42.3177 98.2628 38.5478C103.01 35.7582 107.787 33.0204 112.566 30.2851C112.857 30.119 113.147 29.9528 113.446 29.7816C113.734 29.617 114.021 29.4524 114.318 29.2828C116.527 28.0175 118.731 26.743 120.933 25.4649C127.269 21.7872 133.635 18.1598 140.037 14.5925C140.343 14.4213 140.65 14.25 140.966 14.0736C142.891 13 144.819 11.933 146.752 10.8738C147.373 10.5328 147.993 10.19 148.611 9.84558C149.475 9.3658 150.341 8.89264 151.209 8.42097C151.704 8.14865 152.199 7.87633 152.71 7.59575C154.123 6.99128 154.972 6.80755 156.493 7.01272Z" fill="url(#paint2_linear_2006_68)"/>
<path d="M189.999 0C189.999 33 189.999 66 189.999 100C179.988 100 169.976 100 159.662 100C159.54 90.5121 159.441 81.0247 159.383 71.5362C159.355 67.1302 159.317 62.7247 159.256 58.3189C159.202 54.4773 159.167 50.6359 159.155 46.7939C159.148 44.7608 159.132 42.7287 159.093 40.6959C159.056 38.779 159.045 36.8634 159.053 34.9462C159.051 34.2459 159.041 33.5457 159.02 32.8457C158.923 29.405 159.06 26.8181 161.533 24.2627C162.654 23.2212 163.832 22.2672 165.044 21.327C165.708 20.766 166.371 20.2036 167.032 19.6386C167.34 19.3839 167.649 19.1291 167.967 18.8666C169.563 17.487 171.045 15.9985 172.537 14.5142C173.893 13.2314 175.302 12.0341 176.734 10.8322C178.774 9.09408 180.731 7.26876 182.702 5.45857C184.278 4.01803 185.864 2.58999 187.489 1.2015C187.761 0.969381 188.032 0.737265 188.312 0.498116C189.02 0 189.02 0 189.999 0Z" fill="url(#paint3_linear_2006_68)"/>
<path d="M490.749 102.75C500.068 109.407 506.112 118.933 508.999 130C509.809 135.494 510.14 140.796 510.112 146.344C510.112 147.135 510.113 147.926 510.113 148.741C510.112 151.328 510.104 153.914 510.096 156.5C510.095 158.305 510.093 160.109 510.092 161.914C510.088 166.642 510.079 171.37 510.067 176.098C510.057 180.931 510.053 185.764 510.048 190.598C510.037 200.065 510.019 209.533 509.999 219C499.109 219 488.219 219 476.999 219C476.989 216.715 476.98 214.429 476.97 212.074C476.937 204.499 476.881 196.923 476.815 189.348C476.775 184.757 476.743 180.167 476.728 175.577C476.713 171.142 476.678 166.707 476.63 162.272C476.616 160.585 476.608 158.898 476.607 157.212C476.597 146.918 476.386 138.454 469.686 130.125C463.625 125.333 458.625 124.439 451.003 124.648C445.119 125.337 441.127 127.4 436.499 131C429.811 139.813 429.395 149.541 429.389 160.504C429.374 162.195 429.358 163.886 429.339 165.577C429.296 170.001 429.276 174.425 429.261 178.849C429.237 184.171 429.185 189.493 429.138 194.816C429.069 202.877 429.037 210.938 428.999 219C418.109 219 407.219 219 395.999 219C395.999 179.4 395.999 139.8 395.999 99C406.889 99 417.779 99 428.999 99C429.494 105.435 429.494 105.435 429.999 112C430.906 110.989 431.814 109.979 432.749 108.937C448.475 93.2115 472.155 91.3696 490.749 102.75Z" fill="#161614"/>
<path d="M577.999 99C589.879 99 601.759 99 613.999 99C614.931 101.493 615.863 103.986 616.823 106.555C617.772 109.089 618.72 111.623 619.669 114.158C620.346 115.966 621.023 117.774 621.699 119.582C625.39 129.444 629.098 139.298 632.89 149.121C633.192 149.907 633.495 150.693 633.807 151.502C635.244 155.228 636.686 158.952 638.136 162.673C638.652 164.007 639.167 165.342 639.683 166.676C640.132 167.83 640.581 168.984 641.044 170.173C641.999 173 641.999 173 641.999 176C642.659 176 643.319 176 643.999 176C644.092 175.212 644.185 174.424 644.28 173.613C645.211 168.934 646.822 164.653 648.499 160.195C648.851 159.246 649.203 158.297 649.566 157.32C650.705 154.253 651.852 151.189 652.999 148.125C653.778 146.033 654.557 143.94 655.335 141.847C657.217 136.789 659.105 131.734 660.996 126.68C661.893 124.284 662.788 121.888 663.683 119.492C666.112 112.991 668.552 106.495 670.999 100C682.219 100 693.439 100 704.999 100C703.019 106.6 700.991 112.87 698.412 119.214C698.064 120.079 697.717 120.944 697.359 121.835C696.214 124.681 695.064 127.524 693.913 130.367C693.099 132.388 692.285 134.409 691.472 136.43C689.307 141.807 687.136 147.181 684.965 152.555C682.731 158.087 680.501 163.62 678.271 169.154C674.355 178.872 670.434 188.588 666.51 198.303C663.216 206.462 659.925 214.623 656.636 222.785C654.508 228.065 652.379 233.345 650.249 238.625C649.828 239.668 649.408 240.711 648.974 241.785C647.822 244.641 646.669 247.496 645.515 250.352C645.195 251.145 644.875 251.938 644.545 252.756C644.249 253.487 643.953 254.218 643.648 254.971C643.4 255.587 643.151 256.203 642.895 256.837C641.625 259.903 640.306 262.949 638.999 266C627.449 266 615.899 266 603.999 266C607.372 255.882 607.372 255.882 609.008 252.493C609.371 251.733 609.735 250.972 610.109 250.188C610.49 249.4 610.872 248.612 611.265 247.801C612.08 246.08 612.895 244.36 613.71 242.639C614.983 239.963 616.26 237.289 617.549 234.621C618.802 232.021 620.034 229.412 621.265 226.801C621.654 226.007 622.044 225.213 622.445 224.395C624.575 219.833 625.568 217 623.999 212C623.146 209.66 622.223 207.345 621.253 205.051C620.971 204.378 620.688 203.704 620.397 203.011C619.458 200.775 618.51 198.544 617.562 196.312C616.891 194.721 616.221 193.13 615.552 191.538C614.121 188.137 612.687 184.736 611.25 181.337C608.974 175.946 606.713 170.548 604.456 165.148C604.078 164.245 603.7 163.341 603.311 162.409C602.547 160.581 601.783 158.753 601.018 156.925C596.356 145.771 591.691 134.617 586.968 123.488C586.056 121.335 585.145 119.181 584.234 117.028C583.395 115.05 582.55 113.074 581.706 111.098C581.212 109.932 580.718 108.765 580.21 107.562C579.78 106.553 579.35 105.544 578.907 104.504C577.999 102 577.999 102 577.999 99Z" fill="#151513"/>
<path d="M530.999 53C541.889 53 552.779 53 563.999 53C563.999 107.78 563.999 162.56 563.999 219C553.109 219 542.219 219 530.999 219C530.999 164.22 530.999 109.44 530.999 53Z" fill="#151513"/>
<ellipse cx="356.999" cy="69.5" rx="20" ry="19.5" fill="#131312"/>
<path d="M340.999 99C351.889 99 362.779 99 373.999 99C373.999 138.6 373.999 178.2 373.999 219C362.779 219 351.559 219 339.999 219C339.976 207.341 339.958 195.681 339.947 184.022C339.942 178.605 339.935 173.188 339.923 167.771C339.876 144.817 339.914 121.933 340.999 99Z" fill="#171716"/>
<path d="M265.602 95.6707C280.402 95.8192 293.223 99.4771 303.999 110C316.178 124.46 317.307 139.301 317.194 157.476C317.191 159.256 317.188 161.035 317.186 162.814C317.178 167.467 317.158 172.119 317.136 176.771C317.115 181.531 317.107 186.291 317.097 191.051C317.075 200.367 317.04 209.683 316.999 219H283.999L282.999 207L280.909 208.609C266.031 219.793 251.46 222.785 232.999 221C222.941 218.888 214.261 213.437 208.53 204.781C203.698 195.531 203.133 183.357 206.058 173.394C210.861 163.123 218.484 157.141 228.95 153.281C237.503 150.528 246.336 149.327 255.187 147.937C257.616 147.553 260.045 147.167 262.473 146.776C263.972 146.535 265.473 146.297 266.974 146.064C275.169 145.019 275.17 145.019 281.999 141C281.772 135.998 280.109 132.866 276.999 129C269.567 123.271 262.191 123.095 252.999 124C247.243 126.042 243.905 129.654 240.999 135C240.669 135.99 240.339 136.98 239.999 138H206.999C209.88 123.593 214.835 112.637 226.999 104C238.352 97.454 249.815 95.7499 262.687 95.6873C263.648 95.6817 264.611 95.6764 265.602 95.6707ZM278.257 167.028C273.82 166.912 269.702 167.143 265.307 167.891C264.589 168.023 263.891 168.15 263.194 168.278C256.438 169.506 249.835 171.055 243.21 172.868C237.552 175.091 234.121 178.724 231.257 184.028C230.799 187.296 230.854 189.171 232.257 192.153C237.343 196.921 242.105 198.314 249.069 198.528C257.914 198.244 266.283 196.113 272.819 189.844C278.249 182.984 278.836 175.483 278.257 167.028Z" fill="#131312"/>
<defs>
<linearGradient id="paint0_linear_2006_68" x1="104.301" y1="39.3978" x2="127.584" y2="106.32" gradientUnits="userSpaceOnUse">
<stop stop-color="#72B6FB"/>
<stop offset="1" stop-color="#6A80F7"/>
</linearGradient>
<linearGradient id="paint1_linear_2006_68" x1="43.4378" y1="-9.99986" x2="92.2282" y2="-9.47844" gradientUnits="userSpaceOnUse">
<stop stop-color="#EEA4CE"/>
<stop offset="1" stop-color="#C58BF2"/>
</linearGradient>
<linearGradient id="paint2_linear_2006_68" x1="-64.125" y1="6.93214" x2="380.537" y2="84.7197" gradientUnits="userSpaceOnUse">
<stop stop-color="#9DCEFF"/>
<stop offset="1" stop-color="#CC8FED"/>
</linearGradient>
<linearGradient id="paint3_linear_2006_68" x1="147.301" y1="-28.9409" x2="223.633" y2="74.1797" gradientUnits="userSpaceOnUse">
<stop stop-color="#72B6FB"/>
<stop offset="1" stop-color="#6A80F7"/>
</linearGradient>
</defs>
</svg>
